# xmcd
#
# Track frame offsets:
#	150
#	13050
#	32728
#	49662
#	57263
#	69616
#	84151
#	99218
#	110306
#	123005
#	139884
#	151667
#	164735
#	175123
#	190340
#	207572
#	219566
#	237298
#	246411
#	267396
#	279005
#	292653
#	303796
#
# Disc length: 4215 seconds
# Revision: 0
# Processed by: cddbd v1.5.2PL0 Copyright (c) Steve Scherf et al.
# Submitted via: dBpowerAMP V12.0
#
DISCID=3a107517
DTITLE=The Georgia Mudcats - Across the Big Pond
DYEAR=1900
DGENRE=Folk
TTITLE0=Goin' Uptown/Avalon Quickstep
TTITLE1=Don't Let Your Deal Go Down
TTITLE2=Bright Sunny South
TTITLE3=Blake's March
TTITLE4=The Cuckoo
TTITLE5=Cajun Waltz
TTITLE6=Otto Wood
TTITLE7=Tom and Jerry
TTITLE8=Pretty Polly
TTITLE9=Rathdrum Fair
TTITLE10=Rock the Cradle Joe/Julianne Johnson
TTITLE11=Young Man Who Wouldn't Hoe Corn
TTITLE12=Green's Hornpipe/Sharp's Hornpipe
TTITLE13=Blackest Crow
TTITLE14=Old Cane Press
TTITLE15=Sugar Hill
TTITLE16=John Henry
TTITLE17=Dance All Night With a Bottle in Your Hand
TTITLE18=Blue Diamond Mine
TTITLE19=Cherokee Shuffle
TTITLE20=Red Mountain Wine
TTITLE21=Texas Gals
TTITLE22=Skillet Good and Greasy
EXTD=
EXTT0=
EXTT1=
EXTT2=
EXTT3=
EXTT4=
EXTT5=
EXTT6=
EXTT7=
EXTT8=
EXTT9=
EXTT10=
EXTT11=
EXTT12=
EXTT13=
EXTT14=
EXTT15=
EXTT16=
EXTT17=
EXTT18=
EXTT19=
EXTT20=
EXTT21=
EXTT22=
PLAYORDER=
